<svg id="Capa_1" enable-background="new 0 0 497.981 497.981" height="512" viewBox="0 0 497.981 497.981" width="512" xmlns="http://www.w3.org/2000/svg"><g><g><path d="m355.332 103.504-3.1 217.32c-.89 1.1-1.56 2.35-1.98 3.69-.32 1.04-.49 2.13-.49 3.23v154.904c0 8.501-6.915 15.379-15.416 15.333l-122.723-.656c-8.436-.045-15.252-6.897-15.252-15.333v-144.138c0-3.94-1.61-7.71-4.46-10.44l-5.31-5.11c-11.51-11.04-18.01-26.3-18.01-42.25v-118.22-58.33z" fill="#ffdfcf"/></g><g><path d="m168.592 161.834v26.439c6.774 3.749 14.555 5.891 22.83 5.891 10.172 0 19.596-3.237 27.32-8.72 7.724 5.483 17.148 8.72 27.32 8.72 11.035 0 21.191-3.807 29.248-10.163 7.342 4.688 16.049 7.418 25.387 7.418s18.045-2.73 25.387-7.418c7.74 6.106 17.421 9.85 27.954 10.135l1.293-90.633h-186.74v58.331z" fill="#fcbcb1"/><g id="XMLID_574_"><g fill="#ffdfcf"><path d="m273.382 92.154v54.69c0 15.09-12.23 27.32-27.32 27.32s-27.32-12.23-27.32-27.32v-54.69c0-15.09 12.23-27.32 27.32-27.32 7.54 0 14.38 3.06 19.32 8 4.94 4.95 8 11.77 8 19.32z"/><path d="m328.018 89.409v54.69c0 15.09-12.23 27.32-27.32 27.32s-27.32-12.23-27.32-27.32v-54.69c0-15.09 12.23-27.32 27.32-27.32 7.54 0 14.38 3.06 19.32 8 4.94 4.95 8 11.77 8 19.32z"/><path d="m382.653 92.154v54.69c0 15.09-12.23 27.32-27.32 27.32s-27.32-12.23-27.32-27.32v-54.69c0-15.09 12.23-27.32 27.32-27.32 7.54 0 14.38 3.06 19.32 8 4.94 4.95 8 11.77 8 19.32z"/><path d="m218.742 92.154v54.69c0 15.09-12.23 27.32-27.32 27.32-15.08 0-27.31-12.23-27.31-27.32v-54.69c0-15.09 12.23-27.32 27.31-27.32 7.54 0 14.38 3.06 19.32 8 4.94 4.95 8 11.77 8 19.32z"/></g></g><g id="XMLID_1_"><g fill="#ffcebf"><path d="m241.377 146.844v-54.69c0-11.052 6.563-20.562 16.002-24.865-3.45-1.572-7.281-2.455-11.317-2.455-15.09 0-27.32 12.23-27.32 27.32v54.69c0 15.09 12.23 27.32 27.32 27.32 4.038 0 7.868-.883 11.317-2.455-9.438-4.303-16.002-13.814-16.002-24.865z"/><path d="m296.012 144.099v-54.69c0-11.051 6.563-20.562 16.002-24.865-3.45-1.572-7.281-2.455-11.317-2.455-15.09 0-27.32 12.23-27.32 27.32v54.69c0 15.09 12.23 27.32 27.32 27.32 4.038 0 7.868-.883 11.317-2.455-9.438-4.303-16.002-13.813-16.002-24.865z"/><path d="m296.012 144.099v-54.69c0-11.051 6.563-20.562 16.002-24.865-3.45-1.572-7.281-2.455-11.317-2.455-15.09 0-27.32 12.23-27.32 27.32v54.69c0 15.09 12.23 27.32 27.32 27.32 4.038 0 7.868-.883 11.317-2.455-9.438-4.303-16.002-13.813-16.002-24.865z"/><path d="m350.648 146.844v-54.69c0-11.052 6.563-20.562 16.002-24.865-3.45-1.572-7.281-2.455-11.317-2.455-15.09 0-27.32 12.23-27.32 27.32v54.69c0 15.09 12.23 27.32 27.32 27.32 4.038 0 7.868-.883 11.317-2.455-9.439-4.303-16.002-13.814-16.002-24.865z"/><path d="m350.648 146.844v-54.69c0-11.052 6.563-20.562 16.002-24.865-3.45-1.572-7.281-2.455-11.317-2.455-15.09 0-27.32 12.23-27.32 27.32v54.69c0 15.09 12.23 27.32 27.32 27.32 4.038 0 7.868-.883 11.317-2.455-9.439-4.303-16.002-13.814-16.002-24.865z"/><path d="m350.648 146.844v-54.69c0-11.052 6.563-20.562 16.002-24.865-3.45-1.572-7.281-2.455-11.317-2.455-15.09 0-27.32 12.23-27.32 27.32v54.69c0 15.09 12.23 27.32 27.32 27.32 4.038 0 7.868-.883 11.317-2.455-9.439-4.303-16.002-13.814-16.002-24.865z"/><path d="m186.747 146.844v-54.69c0-11.05 6.562-20.56 15.995-24.863-3.451-1.573-7.283-2.457-11.32-2.457-15.08 0-27.31 12.23-27.31 27.32v54.69c0 15.09 12.23 27.32 27.31 27.32 4.04 0 7.87-.883 11.32-2.457-9.433-4.303-15.995-13.813-15.995-24.863z"/></g></g><g id="XMLID_571_"><g><path d="m352.245 319.915 1.848-129.558s-16.717.01-28.921.02c-20.08.017-39.456 8.289-52.713 23.371-10.328 11.749-16.956 26.865-17.98 43.557l-1.097 17.979v.609c0 .167.001.335.002.502.174 24.143 20.042 43.519 44.186 43.519h54.675z" fill="#fcbcb1"/><g fill="#ffcebf"><path d="m328.018 103.143c-23.416 1.728-42.283 21.04-42.736 44.549-.148 7.668 1.581 15.05 4.969 21.654 3.219 1.333 6.746 2.073 10.447 2.073 15.09 0 27.32-12.23 27.32-27.32z"/><path d="m382.653 146.844v-42.198c-4.659-1.08-9.446-1.642-14.281-1.642h-36.942c-1.15 0-2.287.057-3.417.14v43.7c0 15.09 12.23 27.32 27.32 27.32s27.32-12.231 27.32-27.32z"/><path d="m350.648 137.281v-34.277h-19.218c-1.15 0-2.287.057-3.417.14v34.137z"/></g><path d="m346.474 181.225c.301-3.807-2.707-7.062-6.525-7.062h-9.096c-7.07 0-13.46-2.86-18.09-7.49-4.74-4.74-7.625-11.336-7.485-18.595.271-14.025 12.124-25.075 26.152-25.075h36.943c8.27 0 16.17 2.36 22.91 6.57 6.75 4.22 12.34 10.29 15.96 17.73 2.88 5.9 4.37 12.38 4.37 18.95v70.52c0 7.43-2.57 14.63-7.27 20.38l-52.11 63.67c-.822 1.133-1.287 1.776-1.771 3.085l-28.569.495c-26.791 0-48.51-21.719-48.51-48.51l1.06-17.37c1.71-27.87 24.81-49.59 52.72-49.59h17.12z" fill="#ffdfcf"/></g></g><g fill="#fd8087"><path d="m466.967 489.1v-132.376h21.646c1.771 0 2.773-2.031 1.695-3.437l-47.623-62.054c-.855-1.114-2.534-1.114-3.389 0l-47.623 62.054c-1.078 1.405-.077 3.437 1.695 3.437h21.645v132.44c0 4.543 3.688 8.224 8.231 8.216l35.522-.063c4.531-.009 8.201-3.685 8.201-8.217z"/><path d="m82.969 490.29v-133.566h21.646c1.771 0 2.773-2.031 1.695-3.437l-47.623-62.054c-.855-1.114-2.534-1.114-3.389 0l-47.624 62.054c-1.078 1.405-.077 3.437 1.695 3.437h21.645v133.634c0 3.884 3.153 7.031 7.037 7.025l37.906-.068c3.875-.008 7.012-3.151 7.012-7.025z"/><path d="m112.211 197.726v-131.4h21.645c1.771 0 2.773-2.032 1.695-3.437l-47.622-62.053c-.855-1.114-2.534-1.114-3.389 0l-47.623 62.054c-1.078 1.405-.077 3.437 1.695 3.437h21.645v131.46c0 5.085 4.127 9.204 9.211 9.195l33.565-.06c5.072-.01 9.178-4.124 9.178-9.196z"/></g></g></g></svg>